<?xml version="1.0" encoding="utf-8"?>
<!-- Generator: Adobe Illustrator 25.1.0, SVG Export Plug-In . SVG Version: 6.00 Build 0)  -->
<svg version="1.1" id="Capa_1" xmlns="http://www.w3.org/2000/svg" xmlns:xlink="http://www.w3.org/1999/xlink" x="0px" y="0px"
	 viewBox="0 0 807 651" style="enable-background:new 0 0 807 651;" xml:space="preserve">
<style type="text/css">
	.st0{fill:#C9C8C8;}
	.st1{fill:#FFFFFF;}
	.st2{fill:#0C0D0D;}
	.st3{fill:#0A0B0B;}
	.st4{fill:#141414;}
	.st5{fill:url(#Led_1_);}
	.st6{fill:#020203;stroke:#020203;stroke-miterlimit:10;}
	.st7{fill:#020203;}
	.st8{fill:#202020;}
	.st9{fill:#FFFFFF;stroke:#656564;stroke-width:2;stroke-miterlimit:10;}
	.st10{fill:#656564;}
	.st11{font-family:'Arial-BoldMT';}
	.st12{font-size:17.8145px;}
	.st13{fill:#D9DAD8;}
	.st14{fill:#D9DAD8;stroke:#141414;stroke-width:0.5;stroke-miterlimit:10;}
	.st15{fill:#343434;stroke:#202020;stroke-width:2;stroke-miterlimit:10;}
	.st16{fill:#0F0F0F;}
</style>
<g id="Bumpers">
	<g id="Right_4_">
		<path id="down_1_" class="st0" d="M708,153.4l-1.8-13.4c0,0-68-17.8-104.3-20.3c0,0-0.4,0.4-0.6,1.8s-1.7,12.8-1.7,12.8
			s1.1-0.1,8.8,0.8c5.7,0.7,22.8,2.7,42,6.2C670.4,144.8,692.6,149.9,708,153.4z"/>
		<path id="up_1_" class="st1" d="M701.8,135.6c0,0-16.5-11-36.1-15.9c-16.7-4.2-20.3-4-27.7-4.4c-7.5-0.4-16.2,0.1-24.4,1.2
			c-10.2,1.6-10.3,1.2-11.8,3.3c-0.3,0.4-0.4,0.7-0.4,1c0.2,0.3,7.2,0.8,11.5,1.7c2.3,0.4,30.3,4.6,54.2,9.4
			c21.5,4.3,39.1,8.5,39.1,8.5V140c0,0,0.1-1.3-2-2.7C702.1,135.8,701.8,135.6,701.8,135.6z"/>
	</g>
	<g id="Left_4_">
		<path id="down" class="st0" d="M99.2,153l1.8-13.1c0,0,68-17.8,104.3-20.3c0,0,0.4,0.4,0.6,1.8s1.7,12.4,1.7,12.4
			s-2.3-0.1-8.7,0.8c-5.7,0.7-22.9,2.9-42.1,6.4C136.8,144.6,114.6,149.5,99.2,153z"/>
		<path id="up" class="st1" d="M105.4,135.6c0,0,16.5-11,36.1-15.9c16.7-4.2,20.3-4,27.7-4.4c7.5-0.4,16.2,0.1,24.4,1.2
			c10.2,1.6,10.3,1.2,11.8,3.3c0.3,0.4,0.4,0.7,0.4,1c-0.2,0.3-7.2,0.8-11.5,1.7c-2.3,0.4-30.3,4.6-54.2,9.4
			c-21.5,4.3-39.1,8.5-39.1,8.5l0.1-0.4c0,0-0.1-1.3,2-2.7C105.1,135.8,105.4,135.6,105.4,135.6z"/>
	</g>
</g>
<path id="Back_Left" class="st2" d="M691,645c0,0-8.4-10-18.3-33.7L658.6,577l-13.7-35.9l-13.1-34c0,0-3-9.8-10.2-18.8
	s-12.5-14.2-16.8-16.8s-14.6-12.6-41.3-12.5s16.5-0.9,16.5-0.9s14.8,3.6,19.1,6.2s19.4,7.9,38.5,44C656.7,544.5,692,634,692,634
	s3.6,10.2,6,11.7s1.4,2.2,1.4,2.2s-0.8,1.1-3,0.7C694.1,648.2,691,645,691,645z"/>
<path id="Back_Right" class="st2" d="M116.3,644.9c0,0,8.4-10,18.3-33.7l14.1-34.3l13.7-35.9l13.1-34c0,0,3-9.8,10.2-18.8
	s12.5-14.2,16.8-16.8s14.6-12.6,41.3-12.5s-16.6-0.9-16.6-0.9s-14.8,3.6-19.1,6.2s-19.4,7.9-38.5,44S115.3,634,115.3,634
	s-3.6,10.2-6,11.7s-1.4,2.2-1.4,2.2s0.8,1.1,3,0.7C113.2,648.2,116.3,644.9,116.3,644.9z"/>
<path id="BackLed2" class="st3" d="M217.1,135.6c0,0,16.9-4.2,39.8-6.4h293.5c0,0,32.4,3.6,39.9,6.7c5.4,2.3-6.6,10.9-13.5,15.4
	c-2.5,1.7-4.8,4.7-4.8,4.7s1.6-16.8-13.6-20.9s-311.3,0.6-311.3,0.6s-12.3,3.8-11.8,19S217.1,135.6,217.1,135.6z"/>
<path id="Backled" class="st4" d="M572,155.3c0,0,2.8-14.9-12.6-20.2c-15.4-5.3,11.7,23.3,11.7,23.3L572,155.3z"/>
<path id="Backled_1_" class="st4" d="M235.2,155.3c0,0-2.8-14.9,12.6-20.2S235.9,157,235.9,157L235.2,155.3z"/>
<linearGradient id="Led_1_" gradientUnits="userSpaceOnUse" x1="403.364" y1="1404.5479" x2="403.364" y2="1649.5227" gradientTransform="matrix(1 0 0 -1 0 1755)">
	<stop  offset="0.2177" style="stop-color:#43464C"/>
	<stop  offset="0.3663" style="stop-color:#F2D63F"/>
</linearGradient>
<path id="Led" class="st5" d="M236.8,162.6c0,0-5.6-10.8,6.7-18.3s320.1,0,320.1,0s7.6,3.8,7.6,12.3s-20.3,103.6-20.3,103.6
	s-2.8,22.6-20.2,36.4c-4,3-12,11.1-33.6,11.1s-191.2,0-191.2,0S291.4,308,277,297s-19.2-25.3-21.1-39.2
	C255.9,257.8,236.6,168,236.8,162.6z"/>
<path class="st6" d="M255.1,253.7c0,0,2.4,13,10.1,26.4c5.5,9.8,10.5,14.2,17.4,18.7c11.8,6,21.5,6.7,21.5,6.7l197.1-0.2
	c0,0,9.3,0.2,21.6-5.6c7.8-4.9,9.5-6.5,12.5-9.8s7.3-9.2,9.6-13.9s4.9-13.7,5.5-15.9s1.8-6.8,1.8-6.8l4.1,8.2l-10.5,26L527.5,308
	l-59.5,6.8l-120.6,4.4l-51.2-9.3l-28-8l-12.6-17.2l-4.1-27L255.1,253.7"/>
<path id="Frontplate" class="st4" d="M105.1,646.8l1.8,0.3c0,0,2.2,0.5,3.2-1.1c0,0,2.5-2,6-10.2s9.9-25.6,9.9-25.6l12.4-30.8
	l12.9-30.2c0,0,10.6-22.9,12.7-27.2s14.1-26.6,19-33c5-6.4,11.9-15.8,23.1-22.2s22.3-7.7,22.3-7.7s4-1.5,16.6,0
	c14.3,3.2,20.9,4,27.3,4.3s12.8,0.2,18.6-0.3c6-0.1,6.4-0.2,7.7-0.2s9-0.2,9-0.2h190.7c0,0,10.6,0.1,19.2,0.6
	c8.6,0.5,14.2,0.8,24.6-0.5s18-3.9,27.9-4.4s22.3,3.5,31.4,8.7c9.1,5.2,18.8,15.9,24.8,24.9s17.1,30.7,17.1,30.7l14.2,30.6l15.1,36
	l7.7,18.7l7.4,19c0,0,6.5,20.7,12.3,20.1c5.8-0.6,40.7-6.8,40.7-6.8s-4.3-2.6-10.2-8.9c-3.1-6.8-3.5-9.2-5.6-14.3
	c-2.1-5.2-23.2-68-23.2-68l-23.4-61.7c0,0-38-105.9-97.5-164.6c-25.7-31.4-29.7-65.2-29.7-65.2s-2.2,26.9-23.3,40.9
	c-14.4,9.7-28.2,9-28.2,9H306c0,0-11.5,0.2-24-7.2c-12.4-7.4-23.7-21.9-26.2-42.7c-4.8,3.2,1.9,14.4-7.2,34.8
	c-12.9,19.1-25.5,21.5-60.8,81.1c-31.5,41.3-58.9,108.7-64.6,128.1c-10,18.3-22.3,53.1-31.5,91.6c-14.5,36.2-15.5,41.1-25.8,47.1
	L105.1,646.8z"/>
<g id="Joystick">
	<g id="Right_3_">
		<circle class="st2" cx="531.9" cy="380.1" r="72.5"/>
		<circle class="st4" cx="531.9" cy="378.7" r="60.9"/>
		<circle class="st2" cx="531.9" cy="378.9" r="52.5"/>
		<circle id="back_1_" class="st7" cx="531.9" cy="378.7" r="48.2"/>
	</g>
	<g id="Left_2_">
		<circle class="st2" cx="274.9" cy="380.1" r="72.4"/>
		<circle class="st4" cx="274.9" cy="378.7" r="60.9"/>
		<circle class="st2" cx="274.9" cy="378.9" r="52.5"/>
		<circle id="back" class="st7" cx="274.9" cy="378.7" r="48.2"/>
	</g>
</g>
<path id="Left_3_" class="st8" d="M81.5,622.7l7.2-19.3l7.7-24.1l8.3-24.9l11.3-30.7c0,0,13.3-33.4,14.6-36.7
	c1.3-3.3,14.6-32.3,14.6-32.3l12.1-24.9c0,0,12.8-26,24.8-44.9s19.8-30.4,19.8-30.4s13.5-19.6,25.5-32.1
	c12.1-12.5,24.9-31.4,27.2-42.3s2.7-20.8-2.1-44.3c-4.9-23.5-15.2-72.5-15.2-72.5l-1.6-7.8l-2.8-6.5c0,0-3.6-7.1-9.9-10.7
	c-6.3-3.6-12-4.4-14.8-4.4s-2.1-0.2-10.9,1c-8.8,1.1-50.6,5.8-108.7,20.9c0,0-1,0.1-2.1,1s-1.7,2.5-1.7,2.5s-19.3,41.9-34.2,78.6
	S13.6,363.2,9,400s-7.8,59.8-7.8,93.9s5.2,60.8,6.4,71.4s6,25.5,6.7,27.5c0.7,2,5.8,17.1,15.7,27.6s16.8,14.9,16.8,14.9
	s5.3,4.7,13.3,5.7c2.2,0.2,4.2-0.1,5.9-0.6c6.3-1.7,9.3-6.6,9.3-6.6S78.9,629.5,81.5,622.7z"/>
<path id="Right_1_" class="st8" d="M725.5,623l-7.2-19.3l-7.7-24.1l-8.3-24.9L691.1,524c0,0-13.3-33.4-14.6-36.7
	S661.9,455,661.9,455l-12.1-24.9c0,0-12.8-26-24.8-44.9s-19.8-30.4-19.8-30.4s-13.5-19.6-25.5-32.1s-25-31.4-27.2-42.3
	c-2.3-10.9-2.7-20.8,2.2-44.3s15.2-72.5,15.2-72.5l1.7-7.8l2.8-6.5c0,0,3.6-7.1,9.9-10.7c6.3-3.6,12-4.4,14.8-4.4s2.1-0.2,10.9,1
	s50.5,5.8,108.7,20.9c0,0,1,0.1,2.1,1s1.7,2.5,1.7,2.5s19.3,41.9,34.2,78.6s37,125.4,41.6,162.2s7.8,59.8,7.8,93.9
	s-5.2,60.8-6.4,71.4s-6,25.5-6.7,27.5s-5,15.8-14.9,26.2c-9.9,10.5-14.8,14-14.8,14s-7.6,6.7-16.3,7.7s-15.1-7-15.1-7
	S728.1,629.8,725.5,623z"/>
<path id="Pad" class="st8" d="M541.8,259.5l20.8-98c0,0,3.4-14.8-0.5-23.2s-12.8-9.4-17.4-10.3c0,0-12.6-2.7-95.9-6
	s-176.7,4.9-176.7,4.9l-11,1.4c0,0-10.8,1.1-15.5,9.1s-1,24.4-1,24.4l17.5,82.3l3.9,18.4c0,0,2.4,12.7,13.3,22.5
	s24.8,10.3,24.8,10.3h196.1c0,0,14.5,1,27.4-10.2C540.6,273.6,541.8,259.5,541.8,259.5z"/>
<g id="Logo_1_">
	<path id="Background" class="st7" d="M381.6,376.3l13.6-4.8v-18.8c0,0,0.2-3,3.4-2.5c3.1,0.4,13.6,4,13.6,4s4.3,1.9,5.8,4.2
		s2,3.7,2,6.1s0,9.2,0,9.2s7.7,0.5,10.5,4.2s-1.7,7.2-3,7.9c-1.2,0.7-21,7.2-21,7.2s-0.2,0.5-4.5-0.7s-10.6-3.3-10.6-3.3
		s-8,0.4-11.6-2.1s-3.8-3.8-3.5-6.1C376.5,378.6,381.6,376.3,381.6,376.3z"/>
	<path id="Backgroundlogo" class="st4" d="M386.8,377.8l11.4-4.1l-0.3-14.9c0,0,0.2-2.3,2.7-2s10.8,3.2,10.8,3.2s3.4,1.5,4.6,3.4
		s1.5,3,1.6,4.8c0.1,1.9,0.1,8.5,0.1,8.5s4.2,0.5,6.4,3.4c2.2,3,0,4.4-1,4.9s-17.8,6.4-17.8,6.4s-0.4-0.2-3.8-1.2s-9.4-3.2-9.4-3.2
		s-4.5-0.3-7.4-2.3s-2.2-1.7-2-3.5C383.1,379.3,386.8,377.8,386.8,377.8z"/>
	<path class="st1" d="M397.5,352.9c2.1,0.4,4.3,1,6.4,1.6c1.2,0.4,2.4,0.7,3.6,1.1c1.9,0.6,3.7,1.3,5.4,2.3c0.8,0.5,1.5,1,2.1,1.6
		c0.7,0.7,1.2,1.5,1.6,2.3c0.7,1.6,1,3.3,1.1,5c0,1.1,0,2.2-0.2,3.3c-0.2,1-0.5,1.9-1,2.7c-0.5,0.7-1.1,1.4-1.8,1.8
		c-0.7,0.4-1.6,0.6-2.4,0.6c-1.2,0-2.5-0.4-3.6-0.9c0-3.8,0-7.5,0-11.3c0-0.7,0-1.4-0.1-2c-0.1-0.5-0.3-1-0.7-1.4
		c-0.3-0.2-0.6-0.4-1-0.5s-0.7,0.1-1,0.4c-0.4,0.5-0.5,1.1-0.5,1.6c0,10,0,20.1,0,30.2c-2.7-0.9-5.4-1.7-8-2.6
		C397.5,376.8,397.5,364.9,397.5,352.9L397.5,352.9z M385.4,378.4c3.5-1.2,7-2.5,10.5-3.8c0,1.4,0,2.8,0,4.1c0,0.2,0,0.4,0,0.6
		c-2.8,1-5.5,2-8.3,3c-0.4,0.1-0.8,0.3-1.1,0.6c-0.1,0.1-0.2,0.3-0.2,0.5c0.1,0.2,0.3,0.4,0.5,0.5c0.6,0.2,1.3,0.3,1.9,0.3
		c0.7,0,1.4-0.1,2.1-0.2c0.5-0.1,0.9-0.3,1.4-0.4c1.2-0.4,2.4-0.9,3.5-1.3c0,1.2,0,2.3,0,3.5c0,0.2,0,0.5,0,0.7
		c-1.5,0.3-2.9,0.4-4.4,0.5c-3,0.1-6-0.4-8.8-1.3c-0.9-0.3-1.9-0.6-2.6-1.2c-0.4-0.3-0.8-0.8-1-1.3c-0.2-0.4-0.1-0.9,0-1.4
		c0.2-0.4,0.5-0.8,0.9-1c0.9-0.6,1.8-1.1,2.8-1.5C383.7,379,384.5,378.7,385.4,378.4L385.4,378.4z"/>
	<path class="st1" d="M425.8,384c0.8-0.4,1.6-0.9,2.2-1.5c0.3-0.4,0.5-0.8,0.5-1.3c0-0.6-0.4-1.1-0.8-1.5c-0.7-0.6-1.6-1-2.5-1.4
		c-0.5-0.2-1-0.4-1.5-0.5c-2.5-0.8-5.2-1.1-7.8-1.1c-0.8,0-1.6,0-2.4,0.1l0,0c-2.2,0.3-4.4,0.7-6.6,1.5c0,1.6,0,3.2,0,4.9
		c2.9-1,5.9-2.1,8.8-3.1c1-0.3,2-0.5,3-0.5c0.6,0,1.3,0.1,1.9,0.3c0.2,0.1,0.5,0.2,0.5,0.5c0.1,0.3-0.1,0.5-0.3,0.6
		c-0.5,0.4-1.1,0.5-1.6,0.7c-4.1,1.5-8.2,2.9-12.3,4.4c-0.1,0,0,0.1-0.1,0.2c0,1.5,0,3,0,4.5c5.4-1.9,10.8-3.9,16.2-5.8
		C424.1,384.7,425,384.4,425.8,384z"/>
</g>
<g id="Start">
	<path class="st9" d="M587.8,198.6h-0.2c-5.1-1-8.3-5.9-7.3-11l3.6-17.7c1-5.1,6-8.3,11-7.3h0.2c5.1,1,8.3,5.9,7.3,11l-3.6,17.7
		C597.8,196.4,592.8,199.6,587.8,198.6z"/>
	<rect x="589" y="147.7" class="st0" width="10.7" height="1.3"/>
	<rect x="589" y="151.6" class="st0" width="10.7" height="1.3"/>
	<rect x="589" y="155.7" class="st0" width="10.7" height="1.3"/>
</g>
<g id="Select">
	<path class="st9" d="M219.4,198.6h0.2c5.1-1,8.3-5.9,7.3-11l-3.6-17.7c-1-5.1-5.9-8.3-11-7.3h-0.2c-5.1,1-8.3,5.9-7.3,11l3.6,17.7
		C209.4,196.4,214.4,199.6,219.4,198.6z"/>
	<rect x="212.1" y="147.9" class="st0" width="1.5" height="7.6"/>
	<rect x="215" y="153.1" transform="matrix(0.5 -0.866 0.866 0.5 -24.1845 265.8066)" class="st0" width="6.2" height="1.5"/>
	<rect x="206.7" y="150.8" transform="matrix(0.866 -0.5 0.5 0.866 -49.1573 124.3426)" class="st0" width="1.5" height="6.2"/>
</g>
<g id="Face">
	<g id="Square">
		<circle class="st10" cx="595.2" cy="268.5" r="26.9"/>
		<ellipse class="st0" cx="595.1" cy="268.5" rx="25.5" ry="25.6"/>
		<circle class="st1" cx="595.1" cy="268.5" r="22"/>
		<path class="st10" d="M606.3,254.5h-22.7h-2.8v2.8V280v2.8h2.8h22.7h2.8V280v-22.7v-2.8L606.3,254.5L606.3,254.5z M606.3,280
			h-22.7v-22.7h22.7V280L606.3,280z"/>
	</g>
	<g id="Cross">
		<circle class="st10" cx="654" cy="327.8" r="26.9"/>
		<ellipse class="st0" cx="654" cy="327.8" rx="25.5" ry="25.6"/>
		<circle class="st1" cx="653.8" cy="327.8" r="22"/>
		<polygon class="st10" points="668,316 666.1,314.1 654,326.1 642.1,314.1 640.1,316 652.1,328 640.1,340 642.1,342 654,330 
			666.1,342 668,340 656,328 		"/>
	</g>
	<g id="Circle">
		<circle class="st10" cx="713" cy="268.5" r="26.9"/>
		<ellipse class="st0" cx="713" cy="268.5" rx="25.5" ry="25.6"/>
		<circle class="st1" cx="712.8" cy="268.4" r="22"/>
		<path class="st10" d="M713,251.4c-9.4,0-17,7.7-17,17.1s7.7,17.1,17,17.1s17.1-7.7,17.1-17.1C730,259.1,722.5,251.4,713,251.4z
			 M713,282.9c-8,0-14.4-6.5-14.4-14.4c0-8,6.5-14.4,14.4-14.4s14.4,6.5,14.4,14.4C727.5,276.5,721,282.9,713,282.9z"/>
	</g>
	<g id="Triangle">
		<circle class="st10" cx="654" cy="209.5" r="26.9"/>
		<ellipse class="st0" cx="654" cy="209.5" rx="25.5" ry="25.6"/>
		<circle class="st1" cx="653.8" cy="209.4" r="22"/>
		<path class="st10" d="M669.7,216.9l-15.7-27L638.3,217l-1.6,2.7h3.2h14h14h3.2L669.7,216.9z M654,216.9h-12.5l12.5-21.5l12.5,21.5
			H654z"/>
	</g>
</g>
<g id="DPad">
	<g id="Up">
		<path class="st10" d="M128.3,218.5l1.6,18.1c0,0,0,4.1,3.7,7.7s14.4,14.4,14.4,14.4s4.7,3.6,10.2,0l15-15c0,0,2.9-2.7,3.3-7.2
			s1.6-20,1.6-20s1.3-12.9-12.1-16s-27.8,0.5-27.8,0.5S126.8,204.8,128.3,218.5z"/>
		<path class="st0" d="M130.5,219.4l1.5,16.5c0,0,0,3.8,3.3,7s13.1,13.1,13.1,13.1s4.2,3.3,9.4,0l13.7-13.7c0,0,2.7-2.5,3-6.5
			c0.3-4.1,1.5-18.2,1.5-18.2s1.2-11.8-11-14.6s-25.3,0.4-25.3,0.4S129.1,207,130.5,219.4z"/>
		<path class="st1" d="M131.8,220l1.4,15.5c0,0,0,3.5,3.1,6.6s12.4,12.4,12.4,12.4s4,3.1,8.8,0l12.9-12.9c0,0,2.5-2.3,2.8-6.2
			s1.4-17.2,1.4-17.2s1.1-11.1-10.4-13.7c-11.4-2.6-23.9,0.4-23.9,0.4S130.5,208.3,131.8,220z"/>
		<path class="st10" d="M147.6,222.6h5.5h5.5c0.6,0,0.9-0.7,0.5-1.1l-5.5-5.4c-0.3-0.3-0.7-0.3-1.1,0l-5.5,5.4
			C146.6,221.9,146.9,222.6,147.6,222.6z"/>
	</g>
	<g id="Right">
		<path class="st10" d="M203.3,243.8l-18.1,1.6c0,0-4.1,0-7.7,3.7s-14.4,14.4-14.4,14.4s-3.6,4.7,0,10.2l15,15c0,0,2.7,2.9,7.2,3.3
			s20,1.6,20,1.6s12.9,1.3,16-12s-0.5-27.8-0.5-27.8S216.9,242.2,203.3,243.8z"/>
		<path class="st0" d="M202.3,245.9l-16.5,1.5c0,0-3.8,0-7,3.3s-13.1,13.1-13.1,13.1s-3.3,4.2,0,9.4l13.7,13.7c0,0,2.5,2.7,6.5,3
			c4.1,0.3,18.2,1.5,18.2,1.5s11.8,1.2,14.6-11s-0.4-25.3-0.4-25.3S214.8,244.5,202.3,245.9z"/>
		<path class="st1" d="M201.8,247.3l-15.5,1.4c0,0-3.5,0-6.6,3.1s-12.4,12.4-12.4,12.4s-3.1,4,0,8.8l12.9,12.9c0,0,2.3,2.5,6.2,2.8
			s17.2,1.4,17.2,1.4s11.1,1.1,13.7-10.4c2.6-11.5-0.4-23.9-0.4-23.9S213.4,245.9,201.8,247.3z"/>
		<path class="st10" d="M198.9,263v5.5v5.5c0,0.6,0.7,0.9,1.1,0.5l5.4-5.5c0.3-0.3,0.3-0.7,0-1l-5.4-5.5
			C199.6,262.1,198.9,262.4,198.9,263z"/>
	</g>
	<g id="Down">
		<path class="st10" d="M128.3,318.4l1.6-18.1c0,0,0-4.1,3.7-7.7s14.4-14.4,14.4-14.4s4.7-3.6,10.2,0l15,15c0,0,2.9,2.7,3.3,7.2
			s1.6,20,1.6,20s1.3,12.9-12.1,16s-27.8-0.5-27.8-0.5S126.8,332.1,128.3,318.4z"/>
		<path class="st0" d="M130.5,317.5L132,301c0,0,0-3.8,3.3-7s13.1-13.1,13.1-13.1s4.2-3.3,9.4,0l13.7,13.7c0,0,2.7,2.5,3,6.5
			s1.5,18.2,1.5,18.2s1.2,11.8-11,14.6c-12.2,2.8-25.3-0.4-25.3-0.4S129.1,329.9,130.5,317.5z"/>
		<path class="st1" d="M131.8,316.9l1.4-15.5c0,0,0-3.5,3.1-6.6s12.4-12.4,12.4-12.4s4-3.1,8.8,0l12.9,12.9c0,0,2.5,2.3,2.8,6.2
			s1.4,17.2,1.4,17.2s1.1,11.1-10.4,13.7c-11.4,2.6-23.9-0.4-23.9-0.4S130.5,328.6,131.8,316.9z"/>
		<path class="st10" d="M158.6,314.3h-5.5h-5.5c-0.6,0-0.9,0.7-0.5,1.1l5.5,5.4c0.3,0.3,0.7,0.3,1.1,0l5.5-5.4
			C159.5,315,159.2,314.3,158.6,314.3z"/>
	</g>
	<g id="Left">
		<path class="st10" d="M103.3,243.8l18.1,1.6c0,0,4.1,0,7.7,3.7s14.4,14.4,14.4,14.4s3.6,4.7,0,10.2l-15,15c0,0-2.7,2.9-7.2,3.3
			s-20,1.6-20,1.6s-12.9,1.3-16-12s0.5-27.8,0.5-27.8S89.7,242.2,103.3,243.8z"/>
		<path class="st0" d="M104.2,245.9l16.5,1.5c0,0,3.8,0,7,3.3s13.1,13.1,13.1,13.1s3.3,4.2,0,9.4l-13.7,13.7c0,0-2.5,2.7-6.5,3
			c-4.1,0.3-18.2,1.5-18.2,1.5s-11.8,1.2-14.6-11c-2.8-12.2,0.4-25.3,0.4-25.3S91.8,244.5,104.2,245.9z"/>
		<path class="st1" d="M104.8,247.3l15.5,1.4c0,0,3.5,0,6.6,3.1s12.4,12.4,12.4,12.4s3.1,4,0,8.8l-12.9,12.9c0,0-2.3,2.5-6.2,2.8
			s-17.2,1.4-17.2,1.4s-11.1,1.1-13.7-10.4c-2.7-11.5,0.4-23.9,0.4-23.9S93.1,245.9,104.8,247.3z"/>
		<path class="st10" d="M107.3,274v-5.5V263c0-0.6-0.7-0.9-1.1-0.5l-5.4,5.5c-0.3,0.3-0.3,0.7,0,1l5.4,5.5
			C106.6,274.9,107.3,274.6,107.3,274z"/>
	</g>
</g>
<g id="Triggers">
	<g id="Right_2_">
		<path class="st1" d="M704,93.7l0.6-4c0,0-5.3-36-20.4-58.7C669.1,8.2,659.2,2.3,642,2.3s-34.9,14.6-40,33.2s-3.7,57.2-3.7,57.2
			s32.6,14.3,67.5,7.2C699.3,93.2,704,93.7,704,93.7z"/>
		<path class="st0" d="M601.2,106.9c0,0,36.6,4.9,102.8-3.3c0,0,3,0.7,2.2-5.3s-1.6-8.6-1.6-8.6s-55.2,11.1-106.2,3v12
			C598.4,104.7,599,106.6,601.2,106.9z"/>
		<text id="R2" transform="matrix(1.0915 0 0 1 607.3037 83.543)" class="st8 st11 st12">R2</text>
	</g>
	<g id="Left_1_">
		<path class="st1" d="M101.5,93.7l-0.6-4c0,0,5.3-36,20.4-58.7s25-28.7,42.2-28.7s34.9,14.6,39.9,33.2s3.6,57.2,3.6,57.2
			s-20.3,11.2-67.5,7.2C92.3,95.9,101.5,93.7,101.5,93.7z"/>
		<path class="st0" d="M204.3,106.9c0,0-36.6,4.9-102.8-3.3c0,0-2.9,0.7-2.2-5.3c0.8-6,1.6-8.6,1.6-8.6s55.2,11.1,106.2,3v12
			C207.1,104.7,206.5,106.6,204.3,106.9z"/>
		<text transform="matrix(1.0915 0 0 1 173.2783 83.543)" class="st8 st11 st12">L2</text>
	</g>
</g>
<g id="Mic_1_">
	<g id="Logo">
		<path class="st13" d="M400,440.6h7.2v2.9c0,0,0,1.3-1.5,1.3s-3.3,0-3.3,0h-1c0,0-1.4,0-1.4-1.6C400,441.6,400,440.6,400,440.6z"/>
		<path class="st4" d="M401,441.3h5.1v1.8c0,0,0,1-1.1,1s-2.9,0-2.9,0s-1.1,0-1.1-0.9C401,442,401,441.3,401,441.3z"/>
		<path class="st13" d="M401.8,438.9v-1.6c0,0,0.1-0.8,1.2-0.8s1.1,0,1.1,0s1.2,0,1.2,0.6s0,5.5,0,5.5s0,0.6-0.9,0.6s-1.9,0-1.9,0
			s-0.9,0.1-0.9-1.1S401.8,438.9,401.8,438.9z"/>
		<polygon class="st13" points="403.1,444.8 403.1,445.6 401.2,445.6 401.2,446.3 405.9,446.3 405.9,445.5 404.1,445.5 404.1,444.8 
					"/>
		<path class="st14" d="M408,445.5L408,445.5c-0.3,0.3-0.7,0.3-1,0.1l-7.8-6.9c-0.3-0.3-0.3-0.7-0.1-1l0,0c0.3-0.3,0.7-0.3,1-0.1
			l7.8,6.9C408.2,444.7,408.2,445.2,408,445.5z"/>
	</g>
	<path id="Button" class="st15" d="M419,426.2h-30.6c-2.6,0-4.7-2.1-4.7-4.7v-0.1c0-2.6,2.1-4.7,4.7-4.7H419c2.6,0,4.7,2.1,4.7,4.7
		v0.1C423.7,424.1,421.6,426.2,419,426.2z"/>
	<path id="Mic" class="st8" d="M409.3,458.8H398c-1,0-1.8-0.8-1.8-1.8l0,0c0-1,0.8-1.8,1.8-1.8h0.7h10.6c1,0,1.8,0.8,1.8,1.8l0,0
		C411,458,410.3,458.8,409.3,458.8z"/>
	<path class="st16" d="M399.9,456c0,0-0.9-0.2-1.3-0.7h10.1c0,0-0.9,0.8-1.9,0.8L399.9,456z"/>
</g>
</svg>
