<?xml version="1.0" encoding="utf-8"?>
<!-- Generator: Adobe Illustrator 25.1.0, SVG Export Plug-In . SVG Version: 6.00 Build 0)  -->
<svg version="1.1" id="Capa_1" xmlns="http://www.w3.org/2000/svg" xmlns:xlink="http://www.w3.org/1999/xlink" x="0px" y="0px"
	 viewBox="0 0 110 44" style="enable-background:new 0 0 110 44;" xml:space="preserve">
<style type="text/css">
	.st0{fill:#0B0D0D;}
	.st1{fill:#141414;}
</style>
<g id="Bumper">
	<path id="down" class="st0" d="M0.8,41l1.8-13.1c0,0,68-17.8,104.3-20.3c0,0,0.4,0.4,0.6,1.8s1.7,12.4,1.7,12.4s-2.3-0.1-8.7,0.8
		c-5.7,0.7-22.9,2.9-42.2,6.4C38.4,32.5,16.2,37.5,0.8,41z"/>
	<path id="up" class="st1" d="M7,23.6c0,0,16.5-11,36.1-15.9c16.7-4.2,20.3-4,27.7-4.4c7.5-0.4,16.2,0,24.4,1.2
		C105.4,6,105.5,5.6,107,7.6c0.3,0.4,0.4,0.7,0.4,1c-0.2,0.3-7.2,0.9-11.5,1.7c-2.3,0.4-30.3,4.6-54.2,9.4
		C20.2,24,2.6,28.2,2.6,28.2v-0.4c0,0-0.1-1.3,2-2.7C6.7,23.8,7,23.6,7,23.6z"/>
</g>
</svg>
