<?xml version="1.0" encoding="utf-8"?>
<!-- Generator: Adobe Illustrator 25.1.0, SVG Export Plug-In . SVG Version: 6.00 Build 0)  -->
<svg version="1.1" id="Capa_1" xmlns="http://www.w3.org/2000/svg" xmlns:xlink="http://www.w3.org/1999/xlink" x="0px" y="0px"
	 viewBox="0 0 238 131" style="enable-background:new 0 0 238 131;" xml:space="preserve">
<style type="text/css">
	.st0{fill:#666665;}
	.st1{fill:#CAC9C8;}
	.st2{fill:#FFFFFF;}
	.st3{fill:#727272;}
	.st4{fill:#202020;}
</style>
<g id="Capa_6">
	<g id="Left">
		<path class="st0" d="M128.7,0.8l18.1,1.6c0,0,4.1,0,7.7,3.7s14.4,14.4,14.4,14.4s3.6,4.7,0,10.2l-15,15c0,0-2.7,2.9-7.2,3.3
			s-20,1.7-20,1.7s-12.9,1.3-16-12s0.5-27.8,0.5-27.8S115.1-0.8,128.7,0.8z"/>
		<path class="st1" d="M129.6,3l16.5,1.5c0,0,3.8,0,7,3.3s13.1,13.1,13.1,13.1s3.3,4.2,0,9.4L152.6,44c0,0-2.5,2.7-6.5,3
			c-4.1,0.3-18.2,1.5-18.2,1.5s-11.8,1.2-14.6-11c-2.8-12.2,0.4-25.3,0.4-25.3S117.2,1.5,129.6,3z"/>
		<path class="st2" d="M130.2,4.3l15.5,1.4c0,0,3.5,0,6.6,3.1s12.4,12.4,12.4,12.4s3.1,4,0,8.8l-12.9,12.9c0,0-2.3,2.5-6.2,2.8
			s-17.2,1.4-17.2,1.4s-11.1,1.1-13.7-10.4c-2.7-11.5,0.4-23.9,0.4-23.9S118.5,2.9,130.2,4.3z"/>
		<path class="st0" d="M132.7,31v-5.5V20c0-0.6-0.7-0.9-1.1-0.5l-5.4,5.5c-0.3,0.3-0.3,0.7,0,1l5.4,5.5C132,32,132.7,31.7,132.7,31z
			"/>
	</g>
	<g id="Down">
		<path class="st0" d="M54.8,42.5l1.6-18.1c0,0,0-4.1,3.7-7.7S74.5,2.3,74.5,2.3s4.7-3.6,10.2,0l15,15c0,0,2.9,2.7,3.3,7.2
			s1.7,20,1.7,20s1.3,12.9-12.1,16S64.9,60,64.9,60S53.3,56.2,54.8,42.5z"/>
		<path class="st1" d="M57,41.6l1.5-16.5c0,0,0-3.8,3.3-7C65.2,14.8,75,5,75,5s4.2-3.3,9.3,0L98,18.6c0,0,2.7,2.5,3,6.5
			s1.5,18.2,1.5,18.2s1.2,11.8-11,14.6s-25.3-0.4-25.3-0.4S55.6,54,57,41.6z"/>
		<path class="st2" d="M58.4,41l1.4-15.5c0,0,0-3.5,3.1-6.6S75.3,6.5,75.3,6.5s4-3.1,8.8,0L97,19.4c0,0,2.5,2.3,2.8,6.2
			s1.4,17.2,1.4,17.2s1.1,11.1-10.3,13.7C79.4,59.1,67,56,67,56S57,52.7,58.4,41z"/>
		<path class="st0" d="M85.1,38.4h-5.5h-5.5c-0.6,0-0.9,0.7-0.5,1.1l5.5,5.4c0.3,0.3,0.7,0.3,1.1,0l5.5-5.4
			C86,39.1,85.7,38.4,85.1,38.4z"/>
	</g>
	<g id="Right">
		<path class="st0" d="M217.9,0.8l-18.1,1.6c0,0-4.1,0-7.7,3.7s-14.4,14.4-14.4,14.4s-3.6,4.7,0,10.2l15,15c0,0,2.7,2.9,7.2,3.3
			s20,1.7,20,1.7s12.9,1.3,16-12s-0.5-27.8-0.5-27.8S231.5-0.8,217.9,0.8z"/>
		<path class="st1" d="M216.9,3l-16.5,1.5c0,0-3.8,0-7,3.3s-13.1,13.1-13.1,13.1s-3.3,4.2,0,9.4L194,43.9c0,0,2.5,2.7,6.5,3
			c4.1,0.3,18.2,1.5,18.2,1.5s11.8,1.2,14.6-11s-0.4-25.3-0.4-25.3S229.4,1.5,216.9,3z"/>
		<path class="st2" d="M216.4,4.3l-15.5,1.4c0,0-3.5,0-6.6,3.1s-12.4,12.4-12.4,12.4s-3.1,4,0,8.8l12.9,12.9c0,0,2.3,2.5,6.2,2.8
			s17.2,1.4,17.2,1.4s11.1,1.1,13.7-10.3c2.6-11.5-0.4-23.9-0.4-23.9S228.1,2.9,216.4,4.3z"/>
		<path class="st0" d="M213.5,20v5.5V31c0,0.6,0.7,0.9,1.1,0.5L220,26c0.3-0.3,0.3-0.7,0-1l-5.4-5.5C214.2,19.1,213.5,19.4,213.5,20
			z"/>
	</g>
	<g id="Down_1_">
		<path class="st0" d="M0.8,20l1.6,18c0,0,0,4.1,3.7,7.7s14.4,14.4,14.4,14.4s4.7,3.6,10.2,0l15-15c0,0,2.9-2.7,3.3-7.2
			s1.7-20,1.7-20S52,5.1,38.7,2S10.9,2.5,10.9,2.5S-0.8,6.4,0.8,20z"/>
		<path class="st1" d="M3,20.9l1.5,16.5c0,0,0,3.8,3.3,7S21,57.6,21,57.6s4.2,3.3,9.4,0L44,43.9c0,0,2.7-2.5,3-6.5
			s1.5-18.2,1.5-18.2s1.2-11.8-11-14.6C25.3,1.7,12.1,4.9,12.1,4.9S1.6,8.5,3,20.9z"/>
		<path class="st2" d="M4.3,21.5L5.7,37c0,0,0,3.5,3.1,6.6S21.2,56,21.2,56s4,3.1,8.8,0l12.9-12.9c0,0,2.5-2.3,2.8-6.2
			s1.4-17.2,1.4-17.2s1.2-11-10.3-13.6C25.4,3.4,13,6.5,13,6.5S3,9.8,4.3,21.5z"/>
		<path class="st0" d="M20,24.1h5.5H31c0.6,0,0.9-0.7,0.5-1.1L26,17.6c-0.3-0.3-0.7-0.3-1,0L19.5,23C19.1,23.5,19.4,24.1,20,24.1z"
			/>
	</g>
</g>
<g id="Dpad_Pushed">
	<g id="Left_copia">
		<path class="st2" d="M128.8,68.8l18.1,1.6c0,0,4.1,0,7.7,3.7S169,88.6,169,88.6s3.6,4.7,0,10.2l-15,15c0,0-2.7,2.9-7.2,3.3
			s-20,1.7-20,1.7s-12.9,1.3-16-12.1s0.5-27.8,0.5-27.8S115.2,67.3,128.8,68.8z"/>
		<path class="st3" d="M129.8,71l16.5,1.5c0,0,3.8,0,7,3.3c3.3,3.3,13.1,13.1,13.1,13.1s3.3,4.2,0,9.3L152.7,112c0,0-2.5,2.7-6.5,3
			c-4.1,0.3-18.2,1.5-18.2,1.5s-11.8,1.2-14.6-11c-2.8-12.2,0.4-25.3,0.4-25.3S117.3,69.6,129.8,71z"/>
		<path class="st4" d="M130.3,72.4l15.5,1.4c0,0,3.5,0,6.6,3.1s12.4,12.4,12.4,12.4s3.1,4,0,8.8L152,111c0,0-2.3,2.5-6.2,2.8
			c-3.8,0.3-17.2,1.4-17.2,1.4s-11.1,1.1-13.7-10.4c-2.7-11.4,0.4-23.9,0.4-23.9S118.6,71,130.3,72.4z"/>
		<path class="st2" d="M132.8,99.1v-5.5v-5.5c0-0.6-0.7-0.9-1.1-0.5l-5.4,5.5c-0.3,0.3-0.3,0.7,0,1.1l5.4,5.5
			C132.1,100,132.8,99.7,132.8,99.1z"/>
	</g>
	<g id="Down_copia_1_">
		<path class="st2" d="M55,110.6l1.6-18.1c0,0,0-4.1,3.7-7.7s14.4-14.4,14.4-14.4s4.7-3.6,10.2,0l15,15c0,0,2.9,2.7,3.3,7.2
			s1.7,20,1.7,20s1.3,12.9-12.1,16S65,128.1,65,128.1S53.4,124.2,55,110.6z"/>
		<path class="st3" d="M57.2,109.7l1.5-16.5c0,0,0-3.8,3.3-7C65.3,83,75.1,73,75.1,73s4.2-3.3,9.3,0l13.7,13.7c0,0,2.7,2.5,3,6.5
			s1.5,18.2,1.5,18.2s1.2,11.8-11,14.6s-25.3-0.4-25.3-0.4S55.7,122.1,57.2,109.7z"/>
		<path class="st4" d="M58.5,109.1l1.4-15.5c0,0,0-3.5,3.1-6.6s12.4-12.4,12.4-12.4s4-3.1,8.8,0l12.9,12.9c0,0,2.5,2.3,2.8,6.2
			s1.4,17.2,1.4,17.2s1.1,11.1-10.3,13.7c-11.4,2.7-23.9-0.4-23.9-0.4S57.1,120.8,58.5,109.1z"/>
		<path class="st2" d="M85.2,106.5h-5.5h-5.5c-0.6,0-0.9,0.7-0.5,1.1l5.5,5.4c0.3,0.3,0.7,0.3,1.1,0l5.5-5.4
			C86.1,107.2,85.8,106.5,85.2,106.5z"/>
	</g>
	<g id="Right_copia">
		<path class="st2" d="M218,68.8l-18.1,1.6c0,0-4.1,0-7.7,3.7s-14.4,14.4-14.4,14.4s-3.6,4.7,0,10.2l15,15c0,0,2.7,2.9,7.2,3.3
			s20,1.7,20,1.7s12.9,1.3,16-12.1s-0.5-27.8-0.5-27.8S231.6,67.3,218,68.8z"/>
		<path class="st3" d="M217.1,71l-16.5,1.5c0,0-3.8,0-7,3.3S180.4,89,180.4,89s-3.3,4.2,0,9.3l13.7,13.7c0,0,2.5,2.7,6.5,3
			c4.1,0.3,18.2,1.5,18.2,1.5s11.8,1.2,14.6-11S233,80.2,233,80.2S229.5,69.6,217.1,71z"/>
		<path class="st4" d="M216.5,72.4L201,73.8c0,0-3.5,0-6.6,3.1S182,89.3,182,89.3s-3.1,4,0,8.8l12.9,12.9c0,0,2.3,2.5,6.2,2.8
			s17.2,1.4,17.2,1.4s11.1,1.1,13.7-10.3c2.6-11.4-0.4-23.9-0.4-23.9S228.2,71,216.5,72.4z"/>
		<path class="st2" d="M213.6,88.1v5.5v5.5c0,0.6,0.7,0.9,1.1,0.5l5.4-5.5c0.3-0.3,0.3-0.7,0-1.1l-5.4-5.5
			C214.3,87.2,213.6,87.5,213.6,88.1z"/>
	</g>
	<g id="Down_copia">
		<path class="st2" d="M0.9,88.1l1.6,18.1c0,0,0,4.1,3.7,7.7s14.4,14.4,14.4,14.4s4.7,3.6,10.2,0l15-15c0,0,2.9-2.7,3.3-7.2
			s1.7-20,1.7-20s1.3-12.9-12-16S11,70.6,11,70.6S-0.6,74.4,0.9,88.1z"/>
		<path class="st3" d="M3.1,89l1.5,16.5c0,0,0,3.8,3.3,7S21,125.6,21,125.6s4.2,3.3,9.4,0L44.1,112c0,0,2.7-2.5,3-6.5
			c0.3-4.1,1.5-18.2,1.5-18.2s1.2-11.8-11-14.6C25.5,69.8,12.3,73,12.3,73S1.7,76.6,3.1,89z"/>
		<path class="st4" d="M4.5,89.6l1.4,15.5c0,0,0,3.5,3.1,6.6s12.4,12.4,12.4,12.4s4,3.1,8.8,0l12.9-12.9c0,0,2.5-2.3,2.8-6.2
			s1.4-17.2,1.4-17.2s1.1-11-10.3-13.7c-11.5-2.7-23.9,0.4-23.9,0.4S3.1,77.9,4.5,89.6z"/>
		<path class="st2" d="M20.2,92.2h5.5h5.5c0.6,0,0.9-0.7,0.5-1.1l-5.5-5.4c-0.3-0.3-0.7-0.3-1,0l-5.5,5.4
			C19.3,91.5,19.6,92.2,20.2,92.2z"/>
	</g>
</g>
</svg>
