<?xml version="1.0" encoding="utf-8"?>
<!-- Generator: Adobe Illustrator 25.1.0, SVG Export Plug-In . SVG Version: 6.00 Build 0)  -->
<svg version="1.1" id="Capa_1" xmlns="http://www.w3.org/2000/svg" xmlns:xlink="http://www.w3.org/1999/xlink" x="0px" y="0px"
	 viewBox="0 0 235 117" style="enable-background:new 0 0 235 117;" xml:space="preserve">
<style type="text/css">
	.st0{fill:#666665;}
	.st1{fill:#CAC9C8;}
	.st2{fill:#FFFFFF;}
	.st3{fill:#727272;}
	.st4{fill:#202020;}
</style>
<g id="Face">
	<g id="Cross">
		<circle class="st0" cx="28.7" cy="28.7" r="26.9"/>
		<ellipse class="st1" cx="28.7" cy="28.7" rx="25.5" ry="25.6"/>
		<circle class="st2" cx="28.5" cy="28.6" r="22"/>
		<polygon class="st0" points="42.8,16.9 40.8,15 28.8,27 16.8,15 14.9,16.9 26.8,29 14.9,40.9 16.8,42.9 28.8,30.9 40.8,42.9 
			42.8,40.9 30.7,29 		"/>
	</g>
	<g id="Circle">
		<circle class="st0" cx="87.9" cy="28.7" r="26.9"/>
		<ellipse class="st1" cx="87.9" cy="28.7" rx="25.5" ry="25.6"/>
		<circle class="st2" cx="87.7" cy="28.6" r="22.1"/>
		<path class="st0" d="M87.9,11.6c-9.4,0-17.1,7.7-17.1,17.1s7.7,17.1,17.1,17.1S105,38.1,105,28.7S97.4,11.6,87.9,11.6z M87.9,43.1
			c-8,0-14.4-6.5-14.4-14.4c0-8,6.5-14.4,14.4-14.4s14.4,6.5,14.4,14.4C102.4,36.7,95.9,43.1,87.9,43.1z"/>
	</g>
	<g id="Square">
		<circle class="st0" cx="147.1" cy="28.7" r="26.9"/>
		<ellipse class="st1" cx="147.1" cy="28.7" rx="25.5" ry="25.6"/>
		<circle class="st2" cx="147.1" cy="28.7" r="22.1"/>
		<path class="st0" d="M158.3,14.7h-22.7h-2.8v2.8v22.7V43h2.8h22.7h2.8v-2.8V17.4v-2.8h-2.8V14.7z M158.3,40.3h-22.7V17.5h22.7
			V40.3L158.3,40.3z"/>
	</g>
	<g id="Triangle">
		<circle class="st0" cx="206.3" cy="28.7" r="26.9"/>
		<ellipse class="st1" cx="206.3" cy="28.7" rx="25.5" ry="25.6"/>
		<circle class="st2" cx="206.1" cy="28.6" r="22.1"/>
		<path class="st0" d="M222,36.2L206.3,9.1l-15.7,27.1l-1.6,2.7h3.2h14h14h3.2L222,36.2z M206.3,36.2h-12.4l12.4-21.5l12.4,21.5
			H206.3z"/>
	</g>
</g>
<g id="Face_Pushed">
	<g id="Cross_copia">
		<circle class="st2" cx="28.7" cy="88.3" r="26.9"/>
		<ellipse class="st3" cx="28.7" cy="88.3" rx="25.5" ry="25.6"/>
		<circle class="st4" cx="28.5" cy="88.3" r="22"/>
		<polygon class="st2" points="42.8,76.5 40.8,74.6 28.8,86.6 16.8,74.6 14.9,76.5 26.8,88.6 14.9,100.5 16.8,102.6 28.8,90.5 
			40.8,102.6 42.8,100.5 30.7,88.6 		"/>
	</g>
	<g id="Circle_copia">
		<circle class="st2" cx="87.9" cy="88.3" r="26.9"/>
		<ellipse class="st3" cx="87.9" cy="88.3" rx="25.5" ry="25.6"/>
		<circle class="st4" cx="87.7" cy="88.2" r="22.1"/>
		<path class="st2" d="M87.9,71.3c-9.4,0-17.1,7.7-17.1,17.1s7.7,17.1,17.1,17.1S105,97.8,105,88.4S97.4,71.3,87.9,71.3z
			 M87.9,102.8c-8,0-14.4-6.5-14.4-14.4c0-8,6.5-14.4,14.4-14.4s14.4,6.5,14.4,14.4C102.4,96.4,95.9,102.8,87.9,102.8z"/>
	</g>
	<g id="Square_copia">
		<circle class="st2" cx="147.1" cy="88.3" r="26.9"/>
		<ellipse class="st3" cx="147.1" cy="88.3" rx="25.5" ry="25.6"/>
		<circle class="st4" cx="147.1" cy="88.3" r="22"/>
		<path class="st2" d="M158.3,74.3h-22.7h-2.8v2.8v22.7v2.8h2.8h22.7h2.8v-2.8V77.1v-2.8C161.1,74.3,158.3,74.3,158.3,74.3z
			 M158.3,99.9h-22.7V77.2h22.7V99.9L158.3,99.9z"/>
	</g>
	<g id="Triangle_copia">
		<circle class="st2" cx="206.3" cy="88.3" r="26.9"/>
		<ellipse class="st3" cx="206.3" cy="88.3" rx="25.5" ry="25.6"/>
		<circle class="st4" cx="206.1" cy="88.2" r="22.1"/>
		<path class="st2" d="M222,95.8l-15.7-27.1l-15.7,27.1l-1.6,2.7h3.2h14h14h3.2L222,95.8z M206.3,95.8h-12.4l12.4-21.5l12.4,21.5
			H206.3z"/>
	</g>
</g>
</svg>
