<?xml version="1.0" encoding="utf-8"?>
<!-- Generator: Adobe Illustrator 25.1.0, SVG Export Plug-In . SVG Version: 6.00 Build 0)  -->
<svg version="1.1" id="Capa_1" xmlns="http://www.w3.org/2000/svg" xmlns:xlink="http://www.w3.org/1999/xlink" x="0px" y="0px"
	 viewBox="0 0 55 57" style="enable-background:new 0 0 55 57;" xml:space="preserve">
<style type="text/css">
	.st0{fill:#202020;stroke:#FFFFFF;stroke-width:2;stroke-miterlimit:10;}
	.st1{fill:#CAC9C8;}
</style>
<g id="Select">
	<path class="st0" d="M17.2,55.2h0.2c5.1-1,8.3-6,7.3-11l-3.6-17.7c-1-5.1-5.9-8.3-11-7.3H9.9c-5.1,1-8.3,5.9-7.3,11l3.6,17.7
		C7.2,53,12.2,56.3,17.2,55.2z"/>
	<rect x="9.9" y="4.6" class="st1" width="1.5" height="7.6"/>
	<rect x="12.8" y="9.7" transform="matrix(0.5 -0.866 0.866 0.5 -1.0724 18.9644)" class="st1" width="6.2" height="1.5"/>
	<rect x="4.5" y="7.4" transform="matrix(0.866 -0.5 0.5 0.866 -4.5416 4.0391)" class="st1" width="1.5" height="6.2"/>
</g>
<g id="Start">
	<path class="st0" d="M38.7,55.2h-0.2c-5.1-1-8.3-6-7.3-11l3.6-17.7c1-5.1,6-8.3,11-7.3H46c5.1,1,8.3,5.9,7.3,11l-3.6,17.7
		C48.7,53,43.8,56.3,38.7,55.2z"/>
	<rect x="40" y="4.3" class="st1" width="10.7" height="1.3"/>
	<rect x="40" y="8.3" class="st1" width="10.7" height="1.3"/>
	<rect x="40" y="12.3" class="st1" width="10.7" height="1.3"/>
</g>
</svg>
