<?xml version="1.0" encoding="utf-8"?>
<!-- Generator: Adobe Illustrator 25.1.0, SVG Export Plug-In . SVG Version: 6.00 Build 0)  -->
<svg version="1.1" id="Capa_1" xmlns="http://www.w3.org/2000/svg" xmlns:xlink="http://www.w3.org/1999/xlink" x="0px" y="0px"
	 viewBox="0 0 202 100" style="enable-background:new 0 0 202 100;" xml:space="preserve">
<style type="text/css">
	.st0{fill:#FFFFFF;}
	.st1{fill:#E8E8E8;}
	.st2{fill:#202020;}
	.st3{fill:#141414;}
</style>
<g>
	<g>
		<g>
			<path class="st0" d="M50,98.4C23.3,98.4,1.6,76.7,1.6,50S23.3,1.6,50,1.6S98.4,23.3,98.4,50S76.7,98.4,50,98.4z"/>
			<g>
				<path class="st0" d="M50,3.2c25.8,0,46.8,21,46.8,46.8S75.8,96.8,50,96.8S3.2,75.8,3.2,50S24.1,3.2,50,3.2 M50,0
					C22.3,0,0,22.3,0,50s22.3,50,50,50s50-22.3,50-50S77.7,0,50,0L50,0z"/>
			</g>
		</g>
		<circle class="st1" cx="50" cy="50" r="29"/>
	</g>
</g>
<g>
	<g>
		<g>
			<path class="st2" d="M152,98.4c-26.7,0-48.4-21.7-48.4-48.4S125.3,1.6,152,1.6s48.4,21.7,48.4,48.4S178.7,98.4,152,98.4z"/>
			<g>
				<path class="st0" d="M152,3.2c25.9,0,46.8,21,46.8,46.8s-21,46.8-46.8,46.8s-46.8-21-46.8-46.8S126.2,3.2,152,3.2 M152,0
					c-27.7,0-50,22.3-50,50s22.3,50,50,50s50-22.3,50-50S179.7,0,152,0L152,0z"/>
			</g>
		</g>
		<circle class="st3" cx="152" cy="50" r="29"/>
	</g>
</g>
</svg>
